<?xml version="1.0" encoding="utf-8"?>
<!-- Generator: Adobe Illustrator 23.0.4, SVG Export Plug-In . SVG Version: 6.00 Build 0)  -->
<svg version="1.1" id="Layer_1" xmlns="http://www.w3.org/2000/svg" xmlns:xlink="http://www.w3.org/1999/xlink" x="0px" y="0px"
	 viewBox="0 0 570.9 262.4" style="enable-background:new 0 0 570.9 262.4;" xml:space="preserve">
<style type="text/css">
	.st0{fill:#1B315D;}
	.st1{fill:#C8FB78;}
	.st2{fill:#9CE78D;}
	.st3{fill:#60D64D;}
	.st4{fill:#00B563;}
	.st5{fill:#B77445;}
	.st6{fill:#A04010;}
	.st7{fill:#007F40;}
	.st8{fill:#00B44B;}
	.st9{fill:#319FBC;}
	.st10{fill:#40B3DB;}
	.st11{fill:#2690A8;}
	.st12{fill:none;}
	.st13{fill:#9309FF;}
	.st14{font-family:'ArialMT';}
	.st15{font-size:60px;}
	.st16{font-size:15px;}
</style>
<rect y="195.2" class="st0" width="570.7" height="67.2"/>
<g>
	<g>
		<g>
			<polygon class="st1" points="459.8,30.5 459.8,75.5 491.6,75.5 			"/>
			<polyline class="st2" points="459.8,75.5 459.8,30.5 428.1,75.5 			"/>
			<polygon class="st3" points="479,75.5 497.6,102.1 459.8,102.1 459.8,75.4 			"/>
			<polygon class="st4" points="440.7,75.5 422,102.1 459.8,102.1 459.8,75.4 			"/>
			<polygon class="st5" points="459.8,124.8 459.8,138.1 471,138.1 471,125.1 			"/>
			<polygon class="st6" points="448.6,124.8 448.6,138.1 459.8,138.1 459.8,125.1 			"/>
			<polygon class="st7" points="434.2,102.1 416.9,125.9 459.8,125.9 459.8,101.6 			"/>
			<polygon class="st8" points="485.5,102.1 502.8,125.9 459.8,125.9 459.8,101.6 			"/>
		</g>
		<g>
			<polygon class="st1" points="498.6,8.1 498.6,62.7 522.4,62.7 			"/>
			<polyline class="st2" points="498.6,62.7 498.6,8.1 474.7,62.7 			"/>
			<polygon class="st3" points="513,62.7 527,95 498.6,95 498.6,62.7 			"/>
			<polygon class="st4" points="484.2,62.7 470.1,95 498.6,95 498.6,62.7 			"/>
			<polygon class="st5" points="498.6,122.7 498.6,138.9 507,138.9 507,123 			"/>
			<polygon class="st6" points="490.1,122.7 490.1,138.9 498.6,138.9 498.6,123 			"/>
			<polygon class="st7" points="479.2,95 466.3,124 498.6,124 498.6,94.4 			"/>
			<polygon class="st8" points="517.9,95 530.9,124 498.6,124 498.6,94.4 			"/>
		</g>
		<g>
			<polygon class="st1" points="524.1,35.1 524.1,78.4 554.2,78.4 			"/>
			<polyline class="st2" points="524.1,78.4 524.1,35.1 494.1,78.4 			"/>
			<polygon class="st3" points="542.3,78.4 560,104.1 524.1,104.1 524.1,78.4 			"/>
			<polygon class="st4" points="506,78.4 488.3,104.1 524.1,104.1 524.1,78.4 			"/>
			<polygon class="st5" points="524.1,126.1 524.1,138.9 534.8,138.9 534.8,126.3 			"/>
			<polygon class="st6" points="513.5,126.1 513.5,138.9 524.1,138.9 524.1,126.3 			"/>
			<polygon class="st7" points="499.8,104.1 483.4,127.1 524.1,127.1 524.1,103.6 			"/>
			<polygon class="st8" points="548.5,104.1 564.8,127.1 524.1,127.1 524.1,103.6 			"/>
		</g>
		<g>
			<polygon class="st1" points="50.7,13.8 50.7,67.8 88.1,67.8 			"/>
			<polyline class="st2" points="50.7,67.8 50.7,13.8 13.2,67.8 			"/>
			<polygon class="st3" points="73.2,67.8 95.2,99.7 50.7,99.7 50.7,67.7 			"/>
			<polygon class="st4" points="28.1,67.8 6.1,99.7 50.7,99.7 50.7,67.7 			"/>
			<polygon class="st5" points="50.7,127.1 50.7,143 63.9,143 63.9,127.3 			"/>
			<polygon class="st6" points="37.4,127.1 37.4,143 50.7,143 50.7,127.3 			"/>
			<polygon class="st7" points="20.4,99.7 0,128.3 50.7,128.3 50.7,99.1 			"/>
			<polygon class="st8" points="80.9,99.7 101.3,128.3 50.7,128.3 50.7,99.1 			"/>
		</g>
		<g>
			<polygon class="st1" points="127.8,20.8 127.8,72.2 156.1,72.2 			"/>
			<polyline class="st2" points="127.8,72.2 127.8,20.8 99.5,72.2 			"/>
			<polygon class="st3" points="144.8,72.2 161.5,102.6 127.8,102.6 127.8,72.1 			"/>
			<polygon class="st4" points="110.7,72.2 94.1,102.6 127.8,102.6 127.8,72.1 			"/>
			<polygon class="st5" points="127.8,128.6 127.8,143.8 137.8,143.8 137.8,128.9 			"/>
			<polygon class="st6" points="117.8,128.6 117.8,143.8 127.8,143.8 127.8,128.9 			"/>
			<polygon class="st7" points="104.9,102.6 89.5,129.8 127.8,129.8 127.8,102 			"/>
			<polygon class="st8" points="150.7,102.6 166.1,129.8 127.8,129.8 127.8,102 			"/>
		</g>
		<g>
			<polygon class="st1" points="104.1,39.3 104.1,82.7 124.7,82.7 			"/>
			<polyline class="st2" points="104.1,82.7 104.1,39.3 83.5,82.7 			"/>
			<polygon class="st3" points="116.5,82.7 128.6,108.3 104.1,108.3 104.1,82.7 			"/>
			<polygon class="st4" points="91.7,82.7 79.6,108.3 104.1,108.3 104.1,82.7 			"/>
			<polygon class="st5" points="104.1,130.3 104.1,143.2 111.4,143.2 111.4,130.5 			"/>
			<polygon class="st6" points="96.8,130.3 96.8,143.2 104.1,143.2 104.1,130.5 			"/>
			<polygon class="st7" points="87.4,108.3 76.2,131.3 104.1,131.3 104.1,107.9 			"/>
			<polygon class="st8" points="120.8,108.3 132,131.3 104.1,131.3 104.1,107.9 			"/>
		</g>
		<g>
			<polygon class="st1" points="484.6,65.4 484.6,95.1 505.2,95.1 			"/>
			<polyline class="st2" points="484.6,95.1 484.6,65.4 464,95.1 			"/>
			<polygon class="st3" points="497,95.1 509.2,112.7 484.6,112.7 484.6,95.1 			"/>
			<polygon class="st4" points="472.2,95.1 460.1,112.7 484.6,112.7 484.6,95.1 			"/>
			<polygon class="st5" points="484.6,127.7 484.6,136.5 491.9,136.5 491.9,127.9 			"/>
			<polygon class="st6" points="477.4,127.7 477.4,136.5 484.6,136.5 484.6,127.9 			"/>
			<polygon class="st7" points="468,112.7 456.8,128.4 484.6,128.4 484.6,112.4 			"/>
			<polygon class="st8" points="501.3,112.7 512.5,128.4 484.6,128.4 484.6,112.4 			"/>
		</g>
		<g>
			<polygon class="st1" points="79.6,43 79.6,86.3 109.7,86.3 			"/>
			<polyline class="st2" points="79.6,86.3 79.6,43 49.5,86.3 			"/>
			<polygon class="st3" points="97.7,86.3 115.4,112 79.6,112 79.6,86.3 			"/>
			<polygon class="st4" points="61.4,86.3 43.7,112 79.6,112 79.6,86.3 			"/>
			<polygon class="st5" points="79.6,134 79.6,146.8 90.2,146.8 90.2,134.2 			"/>
			<polygon class="st6" points="68.9,134 68.9,146.8 79.6,146.8 79.6,134.2 			"/>
			<polygon class="st7" points="55.2,112 38.9,135 79.6,135 79.6,111.5 			"/>
			<polygon class="st8" points="103.9,112 120.3,135 79.6,135 79.6,111.5 			"/>
		</g>
		<path class="st9" d="M-0.2,132.3v21.2c0,0,21.7-0.9,38.5,3.1s56.2,6.6,79.6,1.8s47.8-7.5,74.3-3.1s61.5,9.3,87.1,3.1
			c25.7-6.2,55.3-7.5,77.4-3.1s58,9.3,81.4,4c23.5-5.3,52.2-9.7,83.6-3.5s48.2,6.4,48.7,5.9c0.4-0.6,0-21.6,0-21.6s-30.1,0.7-46.5-5
			s-66.4-2.7-86.7,3.5s-79.2-3.1-81.8-4.4s-50-4.9-80.5,4.4s-80.5-3.5-82.7-4s-43.4-7.1-80.5,4c-43.1,7.3-68.6-1.8-70.8-2.2
			C38.8,135.8,15.3,131.4-0.2,132.3z"/>
		<path class="st10" d="M0,147.2v21.2c0,0,21.7-0.9,38.5,3.1s56.2,6.6,79.6,1.8s47.8-7.5,74.3-3.1s61.5,9.3,87.1,3.1
			c25.7-6.2,55.3-7.5,77.4-3.1s58,9.3,81.4,4c23.5-5.3,52.2-9.7,83.6-3.5s48.2,6.4,48.7,5.9s0-21.6,0-21.6s-30.1,0.7-46.5-5
			s-66.4-2.7-86.7,3.5s-79.2-3.1-81.8-4.4s-50-4.9-80.5,4.4s-80.5-3.5-82.7-4c-2.2-0.4-43.4-7.1-80.5,4c-43.1,7.3-68.6-1.8-70.8-2.2
			C38.9,150.8,15.5,146.3,0,147.2z"/>
		<path class="st11" d="M0,165.7v21.2c0,0,21.7-0.9,38.5,3.1s56.2,6.6,79.6,1.8s47.8-7.5,74.3-3.1s61.5,9.3,87.1,3.1
			c25.7-6.2,55.3-7.5,77.4-3.1s58,9.3,81.4,4c23.5-5.3,52.2-9.7,83.6-3.5s48.2,6.4,48.7,5.9s0-21.6,0-21.6s-30.1,0.7-46.5-5
			s-66.4-2.7-86.7,3.5s-79.2-3.1-81.8-4.4s-50-4.9-80.5,4.4s-80.5-3.5-82.7-4c-2.2-0.4-43.4-7.1-80.5,4c-43.1,7.3-68.6-1.8-70.8-2.2
			C38.9,169.2,15.5,164.8,0,165.7z"/>
		<path class="st9" d="M0,185.1v21.2c0,0,21.7-0.9,38.5,3.1s56.2,6.6,79.6,1.8s47.8-7.5,74.3-3.1s61.5,9.3,87.1,3.1
			c25.7-6.2,55.3-7.5,77.4-3.1s58,9.3,81.4,4c23.5-5.3,52.2-9.7,83.6-3.5s48.2,6.4,48.7,5.9s0-21.6,0-21.6s-30.1,0.7-46.5-5
			s-66.4-2.7-86.7,3.5s-79.2-3.1-81.8-4.4s-50-4.9-80.5,4.4s-80.5-3.5-82.7-4c-2.2-0.4-43.4-7.1-80.5,4c-43.1,7.3-68.6-1.8-70.8-2.2
			C38.9,188.6,15.5,184.2,0,185.1z"/>
		<path class="st10" d="M0,202.7V224c0,0,21.7-0.9,38.5,3.1s56.2,6.6,79.6,1.8s47.8-7.5,74.3-3.1s61.5,9.3,87.1,3.1
			c25.7-6.2,55.3-7.5,77.4-3.1s58,9.3,81.4,4c23.5-5.3,52.2-9.7,83.6-3.5s48.2,6.4,48.7,5.9s0-21.6,0-21.6s-30.1,0.7-46.5-5
			s-66.4-2.7-86.7,3.5s-79.2-3.1-81.8-4.4s-50-4.9-80.5,4.4s-80.5-3.5-82.7-4c-2.2-0.4-43.4-7.1-80.5,4c-43.1,7.3-68.6-1.8-70.8-2.2
			C38.9,206.3,15.5,201.9,0,202.7z"/>
		<path class="st11" d="M0,222v21.2c0,0,21.7-0.9,38.5,3.1s56.2,6.6,79.6,1.8s47.8-7.5,74.3-3.1s61.5,9.3,87.1,3.1
			s55.3-7.5,77.4-3.1s58,9.3,81.4,4c23.5-5.3,52.2-9.7,83.6-3.5s48.2,6.4,48.7,5.9s0-21.6,0-21.6s-30.1,0.7-46.5-5
			s-66.4-2.7-86.7,3.5s-79.2-3.1-81.8-4.4s-50-4.9-80.5,4.4s-80.5-3.5-82.7-4c-2.2-0.4-43.4-7.1-80.5,4c-43.1,7.3-68.6-1.8-70.8-2.2
			C38.9,225.5,15.5,221.1,0,222z"/>
	</g>
	<rect x="166.1" y="55.3" class="st12" width="250.2" height="207.2"/>
	<text transform="matrix(1 0 0 1 184.0126 98.762)" class="st13 st14 st15">ECO DC</text>
	<text transform="matrix(1 0 0 1 233.8426 116.762)" class="st11 st14 st16">Ripple of Change</text>
</g>
</svg>
