<?xml version="1.0" encoding="utf-8"?>
<!-- Generator: Adobe Illustrator 23.0.4, SVG Export Plug-In . SVG Version: 6.00 Build 0)  -->
<svg version="1.1" id="Layer_1" xmlns="http://www.w3.org/2000/svg" xmlns:xlink="http://www.w3.org/1999/xlink" x="0px" y="0px"
	 viewBox="0 0 512 512" style="enable-background:new 0 0 512 512;" xml:space="preserve">
<style type="text/css">
	.st0{fill:#AF9FE2;}
	.st1{fill:#063E8B;}
	.st2{fill:#032E68;}
	.st3{fill:#5832CE;}
	.st4{fill:#440BD4;}
	.st5{fill:#00B563;}
	.st6{fill:#6BC197;}
	.st7{fill:#21543C;}
	.st8{fill:#82E8C1;}
	.st9{fill:#0A4C2C;}
</style>
<g>
	
		<rect x="290.8" y="91.1" transform="matrix(0.2748 -0.9615 0.9615 0.2748 132.2336 377.4742)" class="st0" width="51.1" height="20"/>
	
		<rect x="314.8" y="165.6" transform="matrix(0.2748 -0.9615 0.9615 0.2748 37.4981 474.1271)" class="st1" width="36.6" height="93.2"/>
	
		<rect x="337.2" y="195.3" transform="matrix(0.2748 -0.9615 0.9615 0.2748 47.5887 500.3084)" class="st2" width="36.6" height="46.6"/>
	<g>
		<path class="st3" d="M359.6,216.2l-51.2-14.6c-21.2-6.1-33.5-28.2-27.4-49.4l11-38.4l0,0c24,6.9,43,25.2,50.6,49l2.5,7.7l6.1-5.2
			c19-16.2,44.8-21.7,68.8-14.9l0,0l-11,38.4C402.9,210,380.8,222.2,359.6,216.2z"/>
		<path class="st3" d="M373.3,240.9l-89.6-25.6L128.2,350.1l-0.2,0.6l0,0c91.2,58.6,197.6,89,305.9,87.4l0,0l0.2-0.6L373.3,240.9z"
			/>
	</g>
	
		<rect x="380.4" y="116.7" transform="matrix(0.2748 -0.9615 0.9615 0.2748 172.5959 482.1996)" class="st0" width="51.1" height="20"/>
	<g>
		<path class="st4" d="M334,208.9l25.6,7.3c21.2,6.1,43.3-6.2,49.4-27.4l11-38.4l0,0c-24-6.9-49.8-1.3-68.8,14.9l-6.1,5.2L334,208.9
			z"/>
		<path class="st4" d="M373.3,240.9l-44.8-12.8l-54,188.9c51.5,14.7,105.2,21.9,159.4,21.2l0,0l0.2-0.6L373.3,240.9z"/>
	</g>
</g>
<g>
	<path class="st5" d="M161.5,62.1l-81.7,46.4l-52.4,68.1l51,72.1l30.2-17.1l89,156.8l143.9-81.7l-89-156.8l30.2-17.1L246.9,52
		L161.5,62.1z"/>
	<polygon class="st6" points="246.9,52 282.6,132.7 252.5,149.9 341.5,306.6 269.5,347.5 120.6,85.3 161.5,62.1 	"/>
	
		<rect x="201.8" y="119.4" transform="matrix(0.8695 -0.4939 0.4939 0.8695 -91.7311 135.1047)" class="st7" width="16.1" height="243.5"/>
	<g>
		
			<rect x="208.7" y="117.6" transform="matrix(0.8695 -0.4939 0.4939 0.8695 -90.4093 136.4548)" class="st8" width="8.7" height="243.5"/>
		<polygon class="st8" points="79.8,108.5 145.5,189.1 155.8,147.2 156.1,145.8 198.8,158.8 161.5,62.1 		"/>
	</g>
	<polygon class="st7" points="156.1,145.8 156.1,145.8 198.8,158.8 161.5,62.1 	"/>
	<polygon class="st9" points="79.8,108.5 156.1,145.8 161.5,62.1 	"/>
</g>
</svg>
