<?xml version="1.0" encoding="utf-8"?>
<!-- Generator: Adobe Illustrator 23.0.4, SVG Export Plug-In . SVG Version: 6.00 Build 0)  -->
<svg version="1.1" id="Capa_1" xmlns="http://www.w3.org/2000/svg" xmlns:xlink="http://www.w3.org/1999/xlink" x="0px" y="0px"
	 viewBox="0 0 808.3 888.1" style="enable-background:new 0 0 808.3 888.1;" xml:space="preserve">
<style type="text/css">
	.st0{fill:#B58ABC;}
	.st1{fill:#9732A5;}
	.st2{fill:#9C88D8;}
	.st3{fill:#7A5293;}
	.st4{fill:#440BD4;}
	.st5{fill:#321982;}
	.st6{fill:#590784;}
	.st7{fill:#4C378C;}
	.st8{fill:#054A9E;}
	.st9{fill:#4D769E;}
	.st10{fill:#195091;}
	.st11{fill:#2573E5;}
</style>
<g>
	<g>
		<path class="st0" d="M378.6,776.4c2.8,0.5,5.5,0,8.1-1.1c3.6-1.2,6.5-4.1,8.2-7.7c41.9-89.3,37.8-193.8-10.1-279.2l-43.2-76.5
			c-3.9-7.4-13.4-10.1-21.2-6.1l-109.1,56.9l-109.6,57.4c-7.3,3.5-10.3,13.3-6.2,20.1l41.6,74.2C186.1,702,276.5,762.4,378.6,776.4z
			"/>
		<path class="st1" d="M386.7,775.3c3.6-1.2,6.5-4.1,8.2-7.7c41.9-89.3,37.8-193.8-10.1-279.2l-43.2-76.5
			c-3.9-7.4-13.4-10.1-21.2-6.1l-109.1,56.9L386.7,775.3z"/>
		<path class="st2" d="M134,420.1l0.3,0.1l21.4,3.3l26.2-13.4l24.1-12.8l10.4-19.9c0,0,0,0,0.1-0.3l-67.9-169.7
			c-15.9-37.7-61.7-54.3-99.9-35C13,191,0.7,239.4,23.6,272.3L134,420.1z"/>
		<path class="st3" d="M287.9,622.4c4.5,1.3,8.9,0.7,12.2-1.5c3.5-1.8,6-4.8,7.2-8.6c9.4-30.5,6-62.4-9.6-89.7l-81.4-145.1
			l-40.7,21.5l-41.3,21.3l81.6,145.5C231.2,592.9,257.2,613.5,287.9,622.4z"/>
		<path class="st4" d="M92.9,251.8l0.1-0.3c7.3-3.8,10.1-12.7,6.2-20.1c-4.3-7.2-13.2-9.7-20.9-6l-0.3-0.1
			c-7.4,4.1-10.3,13.3-6.3,20.4C75.9,253.2,85.1,255.9,92.9,251.8z"/>
		<path class="st5" d="M78.3,225.5L93,251.6c7.3-3.8,10.1-12.7,6.2-20.1C94.9,224.3,86,221.7,78.3,225.5z"/>
		<path class="st6" d="M300.1,620.8c3.5-1.8,6-4.8,7.2-8.6c9.4-30.5,6-62.4-9.6-89.7l-81.4-145.1l-40.7,21.5L300.1,620.8z"/>
	</g>
	<path class="st7" d="M181.9,410.1l24.1-12.8l10.4-19.9c0,0,0,0,0.1-0.3l-67.9-169.7c-15.9-37.7-61.7-54.3-99.9-35L181.9,410.1z"/>
</g>
<g>
	<path class="st8" d="M671.4,620.3c-34.5-20.5-71.3-30.9-108.5-30.7c-135.5,0-245.3,133.7-245.3,298.5h490.7
		C808.3,770.6,752.6,669.1,671.4,620.3z"/>
	<path class="st9" d="M808.3,888.1H473.8c0-74-53.8-138-132.1-168.8c3.1-2.3,6.1-4.4,9.2-6.4c38.5-26.2,82.8-43.2,129.3-49.7
		c16.3-2.3,32.8-3.5,49.3-3.5c34.1-0.1,68.1,5.1,100.5,15.5C734.4,708.1,808.3,791,808.3,888.1z"/>
	<path class="st10" d="M501.7,888.1h-27.9c0-74-53.8-138-132.1-168.8c3.1-2.3,6.1-4.4,9.2-6.4c6.3,1.8,12.6,4,18.7,6.4
		C447.9,750.1,501.7,814.1,501.7,888.1z"/>
	<path class="st11" d="M341.7,719.4c-33.3-12.9-68.9-19.5-104.8-19.3C106.1,700,0,784.3,0,888.1h473.8
		C473.8,814.1,420,750.1,341.7,719.4z"/>
</g>
</svg>
