<?xml version="1.0" encoding="utf-8"?>
<!-- Generator: Adobe Illustrator 23.0.4, SVG Export Plug-In . SVG Version: 6.00 Build 0)  -->
<svg version="1.1" id="Layer_1" xmlns="http://www.w3.org/2000/svg" xmlns:xlink="http://www.w3.org/1999/xlink" x="0px" y="0px"
	 viewBox="0 0 483.9 491.8" style="enable-background:new 0 0 483.9 491.8;" xml:space="preserve">
<style type="text/css">
	.st0{fill:#440BD4;}
	.st1{fill:#04005E;stroke:#000000;stroke-miterlimit:10;}
	.st2{fill:#04005E;stroke:#04005E;stroke-width:6;stroke-miterlimit:10;}
	.st3{fill:#2F89CC;stroke:#04005E;stroke-width:6;stroke-miterlimit:10;}
	.st4{fill:#04005E;}
	.st5{fill:#2F89CC;}
	.st6{fill:#255F75;}
	.st7{fill:#A6D2ED;}
	.st8{fill:#6AA7C6;}
	.st9{fill:#319FBC;}
	.st10{fill:#3490E2;}
</style>
<rect x="31.9" y="123.8" class="st0" width="428" height="352"/>
<rect x="147.9" y="187.8" class="st1" width="64" height="48"/>
<rect x="147.9" y="291.8" class="st1" width="64" height="48"/>
<line class="st2" x1="139.9" y1="395.8" x2="219.9" y2="395.8"/>
<line class="st2" x1="139.9" y1="422.9" x2="219.9" y2="422.9"/>
<path class="st3" d="M-82.3,14.6"/>
<g>
	<polygon class="st4" points="105.6,480 85.5,417.1 309.3,345.3 291.8,385.6 329.4,408.1 	"/>
	<polygon class="st5" points="85.5,417.1 95.5,448.6 291.8,385.6 309.3,345.3 	"/>
	<path class="st6" d="M105.6,480l-20.2-62.8c0,0-43.1,12.2-31.9,44.9S105.6,480,105.6,480z"/>
	<polygon class="st7" points="291.8,385.6 309.3,345.3 372,359.8 	"/>
	<polygon class="st8" points="291.6,385.1 329.3,407.7 371.9,359.3 	"/>
	<polygon class="st6" points="360,372.8 345.9,377 349.8,366.9 340.8,361 354.5,355.8 371.9,359.3 	"/>
</g>
<g>
	<polygon class="st4" points="40.4,18.8 16,120.5 295.4,190.3 320.8,88.9 	"/>
	<polygon class="st0" points="60.3,23.8 54,49.3 61.2,51.1 67.6,25.6 	"/>
	<polygon class="st0" points="81.3,29.1 75,54.6 82.2,56.4 88.6,30.9 	"/>
	<polygon class="st0" points="100.8,33.9 94.5,59.5 101.7,61.3 108.1,35.7 	"/>
	<polygon class="st0" points="119.5,38.6 113.1,64.1 120.4,65.9 126.7,40.4 	"/>
	<polygon class="st0" points="138.6,43.4 132.3,68.9 139.5,70.7 145.9,45.2 	"/>
	<polygon class="st0" points="158.3,48.3 152,73.8 159.2,75.6 165.6,50.1 	"/>
	<polygon class="st0" points="177,52.9 170.6,78.5 177.8,80.3 184.2,54.7 	"/>
	<polygon class="st0" points="196.5,57.8 190.1,83.4 197.4,85.2 203.7,59.6 	"/>
	<polygon class="st0" points="216.3,62.7 209.9,88.3 217.1,90.1 223.5,64.6 	"/>
	<polygon class="st0" points="236.4,67.8 230.1,93.3 237.3,95.1 243.6,69.6 	"/>
	<polygon class="st0" points="255.1,72.4 248.7,98 255.9,99.8 262.3,74.2 	"/>
	<polygon class="st0" points="273.9,77.1 267.5,102.7 274.8,104.5 281.1,79 	"/>
	<polygon class="st0" points="294.6,82.3 288.2,107.8 295.4,109.6 301.8,84.1 	"/>
</g>
<g>
	<path class="st5" d="M414.5,91.6l-30.1,61.1c0,0-29.5-15.9-15.2-45.9C383.4,76.8,414.5,91.6,414.5,91.6z"/>
	<path class="st9" d="M414.3,91.5l-30.1,61.1c0,0,30.6,13.7,45.7-15.9S414.3,91.5,414.3,91.5z"/>
	<path class="st9" d="M414.3,91.5c0,0-9.4-2.9-11-3.1c-1.7-0.2,21.6-44,21.6-44s9.4-6.8,13.9-3.4C435.7,49.7,414.3,91.5,414.3,91.5z
		"/>
	<path class="st5" d="M414.2,91.4c0,0,8,5.7,9.2,6.9c1.2,1.2,21.6-44,21.6-44s-1-11.9-6.4-13.4C433.6,48.7,414.2,91.4,414.2,91.4z"
		/>
	<path class="st10" d="M366.4,130.9l-93.5,104.2c0,0-8.3,12.9-1,17c7.3,4.1,10.8,4.7,18.5-1.1c7.7-5.9,88.9-101.7,88.9-101.7
		S369.3,141.9,366.4,130.9z"/>
	<path class="st10" d="M411.6,153.2L386,290.8c0,0-5.2,14.4-12.8,11.1c-7.7-3.3-10.3-5.6-10.4-15.3s26.4-132.5,26.4-132.5
		S401.2,157.6,411.6,153.2z"/>
	<polygon class="st10" points="271.9,252.1 262.1,262.2 269.5,249.3 	"/>
	<polygon class="st10" points="373.2,301.9 371.1,315.8 376.8,302.2 	"/>
</g>
<rect x="61.5" y="187.8" class="st1" width="64" height="48"/>
<rect x="61.5" y="291.8" class="st1" width="64" height="48"/>
<rect x="62.5" y="252.7" class="st1" width="64" height="5"/>
<rect x="62.5" y="265.3" class="st1" width="64" height="5"/>
<rect x="147.9" y="250.2" class="st1" width="64" height="5"/>
<rect x="147.9" y="353.3" class="st1" width="64" height="5"/>
</svg>
