<?xml version="1.0" encoding="utf-8"?>
<!-- Generator: Adobe Illustrator 23.0.4, SVG Export Plug-In . SVG Version: 6.00 Build 0)  -->
<svg version="1.1" id="Capa_1" xmlns="http://www.w3.org/2000/svg" xmlns:xlink="http://www.w3.org/1999/xlink" x="0px" y="0px"
	 viewBox="0 0 384 384" style="enable-background:new 0 0 384 384;" xml:space="preserve">
<style type="text/css">
	.st0{fill:#9191B7;}
	.st1{fill:#04005E;}
	.st2{fill:#C7C7E2;}
	.st3{fill:#064359;}
	.st4{fill:#27A2DB;}
	.st5{fill:#3A556A;}
</style>
<g>
	<path class="st0" d="M357.6,312.2l-3.1-0.1l-24.3-72.5c-0.7-2.2-5.2-3.9-9.9-3.9H63.7c-4.8,0-9.2,1.7-9.9,3.9l-24.2,72.1l-3.2-0.1
		V322h0c0,2.6,3.6,4.6,8.8,4.6h313.5c5.1,0,8.7-2,8.8-4.6h0V312.2z"/>
	<path class="st1" d="M320.3,57.4H63.7c-4.8,0-8.6,3.9-8.6,8.6v148.3c0,4.8,3.9,8.6,8.6,8.6h256.6c4.8,0,8.6-3.9,8.6-8.6V66
		C328.9,61.3,325.1,57.4,320.3,57.4z"/>
	<path class="st2" d="M320.3,225.7H63.7c-4.8,0-9.2,1.7-9.9,3.9l-27.2,81.2c-1.1,3.1,2.8,5.7,8.6,5.7h313.5c5.8,0,9.7-2.6,8.6-5.7
		l-27.2-81.2C329.5,227.5,325.1,225.7,320.3,225.7z"/>
	<g>
		<path class="st3" d="M314.8,233H69.2c-0.2,0-0.4,0.1-0.4,0.2l-11.6,39.3c0,0.1,0.1,0.2,0.3,0.2h269.1c0.2,0,0.3-0.1,0.3-0.2
			l-11.6-39.3C315.2,233.1,315,233,314.8,233z"/>
		<path class="st3" d="M239.1,277.6h-94.3c-3.3,0-6.2,1.4-6.4,3.1l-2.6,22.7c-0.2,1.9,2.5,3.4,6,3.4h100.3c3.5,0,6.2-1.5,6-3.4
			l-2.6-22.7C245.3,279,242.5,277.6,239.1,277.6z"/>
	</g>
	<rect x="71" y="73.3" class="st4" width="242" height="133.8"/>
	<rect x="71" y="201.8" class="st3" width="242" height="5.3"/>
	<path class="st5" d="M301.1,218.2H82.9c-0.4,0-0.7,0.3-0.7,0.6v11.1c0,0.3,0.3,0.6,0.7,0.6h218.1c0.4,0,0.7-0.3,0.7-0.6v-11.1
		C301.8,218.5,301.4,218.2,301.1,218.2z"/>
</g>
</svg>
